<svg id="Слой_1" data-name="Слой 1" xmlns="http://www.w3.org/2000/svg" viewBox="0 0 611.15 693.91">
  <title>7reset_game</title>
  <path d="M332.12,89.44V44.29H383v46.2C536.86,106.41,656.8,236.41,656.8,394.43,656.8,563.19,520,700,351.22,700S45.65,563.18,45.65,394.43c0-162.35,126.61-295.13,286.48-305Zm19.1,559.64c140.63,0,254.65-114,254.65-254.65s-114-254.65-254.65-254.65S96.56,253.78,96.56,394.42s114,254.65,254.65,254.65ZM226.3,485.95l105.82-84.66V197.08H383V425.78L258.11,525.72ZM217.52,57V6.09H484.91V57Z" transform="translate(-45.65 -6.09)"/>
</svg>
